<svg width="31" height="30" viewBox="0 0 31 30" fill="none" xmlns="http://www.w3.org/2000/svg">
<rect x="0.684204" width="30" height="30" rx="3.94737" fill="#033923"/>
<path d="M15.6876 11.0988C13.5301 11.0988 11.7899 12.839 11.7899 14.9965C11.7899 17.154 13.5301 18.8942 15.6876 18.8942C17.8451 18.8942 19.5853 17.154 19.5853 14.9965C19.5853 12.839 17.8451 11.0988 15.6876 11.0988ZM15.6876 17.5305C14.2934 17.5305 13.1536 16.3941 13.1536 14.9965C13.1536 13.5989 14.29 12.4625 15.6876 12.4625C17.0852 12.4625 18.2217 13.5989 18.2217 14.9965C18.2217 16.3941 17.0818 17.5305 15.6876 17.5305V17.5305ZM20.6539 10.9393C20.6539 11.4448 20.2468 11.8485 19.7448 11.8485C19.2393 11.8485 18.8357 11.4414 18.8357 10.9393C18.8357 10.4373 19.2427 10.0302 19.7448 10.0302C20.2468 10.0302 20.6539 10.4373 20.6539 10.9393ZM23.2354 11.862C23.1778 10.6442 22.8996 9.56547 22.0074 8.67669C21.1187 7.78792 20.0399 7.50975 18.8221 7.44869C17.5669 7.37745 13.8049 7.37745 12.5498 7.44869C11.3353 7.50636 10.2566 7.78453 9.36444 8.6733C8.47227 9.56208 8.1975 10.6408 8.13644 11.8586C8.0652 13.1138 8.0652 16.8758 8.13644 18.1309C8.1941 19.3488 8.47227 20.4275 9.36444 21.3163C10.2566 22.2051 11.332 22.4832 12.5498 22.5443C13.8049 22.6155 17.5669 22.6155 18.8221 22.5443C20.0399 22.4866 21.1187 22.2085 22.0074 21.3163C22.8962 20.4275 23.1744 19.3488 23.2354 18.1309C23.3067 16.8758 23.3067 13.1172 23.2354 11.862V11.862ZM21.6139 19.4777C21.3493 20.1426 20.8371 20.6548 20.1688 20.9228C19.1681 21.3197 16.7935 21.2281 15.6876 21.2281C14.5817 21.2281 12.2038 21.3163 11.2064 20.9228C10.5416 20.6582 10.0293 20.146 9.76133 19.4777C9.36444 18.477 9.45603 16.1024 9.45603 14.9965C9.45603 13.8906 9.36783 11.5126 9.76133 10.5153C10.0259 9.85042 10.5382 9.33819 11.2064 9.0702C12.2072 8.6733 14.5817 8.76489 15.6876 8.76489C16.7935 8.76489 19.1715 8.67669 20.1688 9.0702C20.8337 9.33479 21.3459 9.84703 21.6139 10.5153C22.0108 11.516 21.9192 13.8906 21.9192 14.9965C21.9192 16.1024 22.0108 18.4804 21.6139 19.4777Z" fill="white"/>
</svg>
