<svg width="31" height="30" viewBox="0 0 31 30" fill="none" xmlns="http://www.w3.org/2000/svg">
<rect x="0.947388" width="30" height="30" rx="3.94737" fill="#033923"/>
<g clip-path="url(#clip0_572_23366)">
<path d="M22.8461 11.4623C22.8572 11.6166 22.8572 11.7709 22.8572 11.9252C22.8572 16.631 19.2755 22.0531 12.7293 22.0531C10.7125 22.0531 8.83901 21.469 7.26306 20.4551C7.54961 20.4882 7.82509 20.4992 8.12266 20.4992C9.78674 20.4992 11.3186 19.9372 12.5419 18.9784C10.977 18.9453 9.66553 17.9204 9.21368 16.5097C9.43411 16.5428 9.65451 16.5648 9.88596 16.5648C10.2055 16.5648 10.5252 16.5207 10.8227 16.4436C9.19167 16.113 7.96835 14.6803 7.96835 12.9501V12.906C8.44221 13.1705 8.99329 13.3358 9.57734 13.3579C8.61854 12.7186 7.9904 11.6276 7.9904 10.3933C7.9904 9.73209 8.16669 9.12596 8.47529 8.59697C10.2276 10.757 12.8615 12.1676 15.815 12.3219C15.7599 12.0574 15.7268 11.7819 15.7268 11.5064C15.7268 9.54474 17.3138 7.94678 19.2865 7.94678C20.3114 7.94678 21.2371 8.37658 21.8873 9.07087C22.6918 8.91659 23.4632 8.61902 24.1465 8.21127C23.882 9.03783 23.32 9.73213 22.5816 10.1729C23.2979 10.0958 23.9922 9.8974 24.6314 9.62191C24.1466 10.3272 23.5404 10.9553 22.8461 11.4623V11.4623Z" fill="white"/>
</g>
<defs>
<clipPath id="clip0_572_23366">
<rect width="17.3684" height="17.3684" fill="white" transform="translate(7.26306 6.31592)"/>
</clipPath>
</defs>
</svg>
