<svg width="35" height="35" viewBox="0 0 35 35" fill="none" xmlns="http://www.w3.org/2000/svg">
<path d="M17.5 32.0833C25.5541 32.0833 32.0833 25.5541 32.0833 17.5C32.0833 9.44581 25.5541 2.91663 17.5 2.91663C9.44581 2.91663 2.91663 9.44581 2.91663 17.5C2.91663 25.5541 9.44581 32.0833 17.5 32.0833Z" stroke="black" stroke-width="2" stroke-linecap="round" stroke-linejoin="round"/>
<path d="M13.2562 13.125C13.5991 12.1503 14.2758 11.3285 15.1666 10.805C16.0573 10.2815 17.1046 10.0901 18.1229 10.2648C19.1413 10.4394 20.0649 10.9689 20.7303 11.7593C21.3957 12.5497 21.7598 13.5501 21.7583 14.5833C21.7583 17.5 17.3833 18.9583 17.3833 18.9583" stroke="black" stroke-width="2" stroke-linecap="round" stroke-linejoin="round"/>
<path d="M17.5 24.7916H17.5146" stroke="black" stroke-width="2" stroke-linecap="round" stroke-linejoin="round"/>
</svg>
