<svg width="168" height="31" viewBox="0 0 168 31" fill="none" xmlns="http://www.w3.org/2000/svg">
<g clip-path="url(#clip0_140_5476)">
<path d="M13.4998 5.02637L19.8673 11.3939C21.1265 12.6523 21.9843 14.2559 22.332 16.0019C22.6798 17.7479 22.5019 19.5578 21.8209 21.2027C21.1398 22.8476 19.9863 24.2535 18.5061 25.2427C17.026 26.2319 15.2857 26.7599 13.5054 26.7599C11.7251 26.7599 9.9848 26.2319 8.50463 25.2427C7.02446 24.2535 5.87091 22.8476 5.1899 21.2027C4.50888 19.5578 4.33099 17.7479 4.67874 16.0019C5.02648 14.2559 5.88424 12.6523 7.1435 11.3939L13.4998 5.02637Z" stroke="white" stroke-width="5.12" stroke-linecap="round" stroke-linejoin="round"/>
</g>
<path d="M35.3062 20.5317L35.2969 16.4806H35.8346L40.9518 10.7608H44.8732L38.5786 17.7691H37.8834L35.3062 20.5317ZM32.247 25V6.01435H35.6028V25H32.247ZM41.1836 25L36.5484 18.52L38.8104 16.1561L45.1976 25H41.1836ZM52.7344 25.2781C51.3439 25.2781 50.1387 24.9722 49.119 24.3603C48.0993 23.7485 47.3082 22.8925 46.7458 21.7925C46.1896 20.6924 45.9115 19.4069 45.9115 17.936C45.9115 16.4651 46.1896 15.1765 46.7458 14.0703C47.3082 12.964 48.0993 12.105 49.119 11.4931C50.1387 10.8813 51.3439 10.5754 52.7344 10.5754C54.125 10.5754 55.3301 10.8813 56.3499 11.4931C57.3696 12.105 58.1576 12.964 58.7138 14.0703C59.2762 15.1765 59.5574 16.4651 59.5574 17.936C59.5574 19.4069 59.2762 20.6924 58.7138 21.7925C58.1576 22.8925 57.3696 23.7485 56.3499 24.3603C55.3301 24.9722 54.125 25.2781 52.7344 25.2781ZM52.753 22.5897C53.507 22.5897 54.1373 22.3827 54.6441 21.9686C55.1509 21.5483 55.5279 20.9859 55.7751 20.2814C56.0285 19.5769 56.1552 18.792 56.1552 17.9267C56.1552 17.0553 56.0285 16.2673 55.7751 15.5628C55.5279 14.8521 55.1509 14.2866 54.6441 13.8663C54.1373 13.4461 53.507 13.2359 52.753 13.2359C51.9804 13.2359 51.3377 13.4461 50.8247 13.8663C50.318 14.2866 49.9379 14.8521 49.6845 15.5628C49.4373 16.2673 49.3137 17.0553 49.3137 17.9267C49.3137 18.792 49.4373 19.5769 49.6845 20.2814C49.9379 20.9859 50.318 21.5483 50.8247 21.9686C51.3377 22.3827 51.9804 22.5897 52.753 22.5897ZM65.4649 20.5317L65.4556 16.4806H65.9933L71.1105 10.7608H75.0319L68.7373 17.7691H68.0421L65.4649 20.5317ZM62.4057 25V6.01435H65.7616V25H62.4057ZM71.3423 25L66.7071 18.52L68.9691 16.1561L75.3564 25H71.3423ZM82.8931 25.2781C81.5026 25.2781 80.2975 24.9722 79.2777 24.3603C78.258 23.7485 77.4669 22.8925 76.9045 21.7925C76.3483 20.6924 76.0702 19.4069 76.0702 17.936C76.0702 16.4651 76.3483 15.1765 76.9045 14.0703C77.4669 12.964 78.258 12.105 79.2777 11.4931C80.2975 10.8813 81.5026 10.5754 82.8931 10.5754C84.2837 10.5754 85.4888 10.8813 86.5086 11.4931C87.5283 12.105 88.3163 12.964 88.8725 14.0703C89.4349 15.1765 89.7161 16.4651 89.7161 17.936C89.7161 19.4069 89.4349 20.6924 88.8725 21.7925C88.3163 22.8925 87.5283 23.7485 86.5086 24.3603C85.4888 24.9722 84.2837 25.2781 82.8931 25.2781ZM82.9117 22.5897C83.6657 22.5897 84.2961 22.3827 84.8028 21.9686C85.3096 21.5483 85.6866 20.9859 85.9338 20.2814C86.1872 19.5769 86.3139 18.792 86.3139 17.9267C86.3139 17.0553 86.1872 16.2673 85.9338 15.5628C85.6866 14.8521 85.3096 14.2866 84.8028 13.8663C84.2961 13.4461 83.6657 13.2359 82.9117 13.2359C82.1392 13.2359 81.4964 13.4461 80.9835 13.8663C80.4767 14.2866 80.0966 14.8521 79.8432 15.5628C79.596 16.2673 79.4724 17.0553 79.4724 17.9267C79.4724 18.792 79.596 19.5769 79.8432 20.2814C80.0966 20.9859 80.4767 21.5483 80.9835 21.9686C81.4964 22.3827 82.1392 22.5897 82.9117 22.5897ZM99.1881 25V6.01435H111.351V8.89743H102.627V14.0517H110.516V16.9348H102.627V25H99.1881ZM114.132 25V10.7608H117.386V13.134H117.534C117.794 12.312 118.239 11.6785 118.869 11.2336C119.506 10.7824 120.232 10.5568 121.048 10.5568C121.233 10.5568 121.44 10.5661 121.669 10.5846C121.903 10.597 122.098 10.6186 122.253 10.6495V13.7365C122.111 13.6871 121.885 13.6438 121.576 13.6068C121.273 13.5635 120.98 13.5419 120.695 13.5419C120.083 13.5419 119.533 13.6747 119.045 13.9405C118.563 14.2001 118.183 14.5616 117.905 15.0251C117.627 15.4886 117.488 16.0232 117.488 16.6289V25H114.132ZM130.2 25.2781C128.772 25.2781 127.539 24.9815 126.501 24.3882C125.469 23.7887 124.675 22.942 124.118 21.8481C123.562 20.748 123.284 19.4532 123.284 17.9638C123.284 16.4991 123.562 15.2136 124.118 14.1074C124.681 12.9949 125.466 12.1297 126.473 11.5117C127.48 10.8875 128.664 10.5754 130.024 10.5754C130.901 10.5754 131.729 10.7175 132.508 11.0018C133.293 11.2799 133.985 11.7125 134.585 12.2996C135.19 12.8868 135.666 13.6346 136.012 14.5431C136.358 15.4454 136.531 16.5207 136.531 17.7691V18.7981H124.86V16.5362H133.314C133.308 15.8934 133.169 15.3218 132.897 14.8212C132.625 14.3144 132.245 13.9158 131.757 13.6253C131.275 13.3348 130.713 13.1896 130.07 13.1896C129.384 13.1896 128.781 13.3565 128.262 13.6902C127.743 14.0177 127.338 14.4504 127.048 14.988C126.763 15.5195 126.618 16.1036 126.612 16.7401V18.7147C126.612 19.5429 126.763 20.2536 127.066 20.8469C127.369 21.434 127.792 21.8852 128.336 22.2004C128.88 22.5094 129.517 22.6639 130.246 22.6639C130.734 22.6639 131.176 22.5959 131.572 22.4599C131.967 22.3178 132.31 22.1107 132.601 21.8388C132.891 21.5669 133.111 21.2301 133.259 20.8283L136.392 21.1806C136.194 22.0088 135.817 22.7319 135.261 23.3499C134.711 23.9617 134.007 24.4376 133.148 24.7775C132.289 25.1112 131.306 25.2781 130.2 25.2781ZM150.625 14.5245L147.565 14.8583C147.479 14.5492 147.327 14.2588 147.111 13.9868C146.901 13.7149 146.617 13.4955 146.258 13.3286C145.9 13.1618 145.461 13.0783 144.942 13.0783C144.243 13.0783 143.656 13.2298 143.18 13.5326C142.711 13.8354 142.479 14.2279 142.485 14.7099C142.479 15.124 142.63 15.4608 142.939 15.7204C143.255 15.98 143.774 16.1932 144.497 16.36L146.926 16.8792C148.273 17.1697 149.274 17.6301 149.929 18.2605C150.591 18.8908 150.924 19.7159 150.93 20.7356C150.924 21.6318 150.662 22.4228 150.142 23.1089C149.63 23.7887 148.916 24.3202 148.001 24.7033C147.086 25.0865 146.036 25.2781 144.849 25.2781C143.106 25.2781 141.703 24.9135 140.64 24.1842C139.577 23.4488 138.944 22.4259 138.74 21.1157L142.012 20.8005C142.161 21.4433 142.476 21.9284 142.958 22.256C143.44 22.5835 144.067 22.7473 144.84 22.7473C145.637 22.7473 146.277 22.5835 146.759 22.256C147.247 21.9284 147.491 21.5236 147.491 21.0416C147.491 20.6337 147.334 20.2968 147.018 20.0311C146.709 19.7654 146.227 19.5614 145.572 19.4193L143.143 18.9094C141.778 18.6251 140.767 18.1461 140.112 17.4725C139.457 16.7927 139.132 15.9336 139.139 14.8953C139.132 14.0177 139.37 13.2576 139.852 12.6148C140.341 11.9659 141.017 11.4653 141.883 11.113C142.754 10.7546 143.758 10.5754 144.895 10.5754C146.564 10.5754 147.877 10.9307 148.835 11.6414C149.799 12.3522 150.396 13.3132 150.625 14.5245ZM157.054 16.6567V25H153.698V6.01435H156.979V13.1803H157.146C157.48 12.3769 157.996 11.7434 158.694 11.2799C159.399 10.8102 160.295 10.5754 161.383 10.5754C162.372 10.5754 163.234 10.7824 163.969 11.1965C164.705 11.6105 165.273 12.2162 165.675 13.0135C166.083 13.8107 166.287 14.7841 166.287 15.9336V25H162.931V16.4528C162.931 15.4948 162.684 14.7501 162.189 14.2186C161.701 13.6809 161.015 13.4121 160.131 13.4121C159.538 13.4121 159.006 13.5419 158.537 13.8014C158.073 14.0548 157.709 14.4225 157.443 14.9046C157.183 15.3867 157.054 15.9707 157.054 16.6567Z" fill="white"/>
<defs>
<clipPath id="clip0_140_5476">
<rect width="27" height="27" fill="white" transform="translate(0 2)"/>
</clipPath>
</defs>
</svg>
