<svg width="39" height="31" viewBox="0 0 39 31" fill="none" xmlns="http://www.w3.org/2000/svg">
<g clip-path="url(#clip0_282_22493)">
<path d="M8.16613 28.8335C8.16613 28.3055 8.52728 27.8718 9.11754 27.8718C9.68162 27.8718 10.0623 28.2869 10.0623 28.8335C10.0623 29.3802 9.68162 29.7952 9.11754 29.7952C8.52728 29.7952 8.16613 29.3615 8.16613 28.8335ZM10.7053 28.8335V27.331H10.0233V27.697C9.80697 27.4266 9.47888 27.2569 9.0327 27.2569C8.15371 27.2569 7.46389 27.9172 7.46389 28.8343C7.46389 29.7513 8.15332 30.4116 9.0327 30.4116C9.47869 30.4116 9.80697 30.2418 10.0233 29.9715V30.3362H10.7045V28.8335H10.7053ZM33.7485 28.8335C33.7485 28.3055 34.1097 27.8718 34.7001 27.8718C35.2648 27.8718 35.6449 28.2869 35.6449 28.8335C35.6449 29.3802 35.2648 29.7952 34.7001 29.7952C34.1099 29.7952 33.7485 29.3615 33.7485 28.8335ZM36.2884 28.8335V26.125H35.6059V27.697C35.3896 27.4266 35.0615 27.2569 34.6153 27.2569C33.7363 27.2569 33.0465 27.9172 33.0465 28.8343C33.0465 29.7513 33.7359 30.4116 34.6153 30.4116C35.0615 30.4116 35.3896 30.2418 35.6059 29.9715V30.3362H36.2884V28.8335ZM19.1695 27.8409C19.609 27.8409 19.8913 28.1048 19.9633 28.5694H18.336C18.4088 28.1357 18.6838 27.8409 19.1697 27.8409H19.1695ZM19.1833 27.2553C18.2642 27.2553 17.6212 27.8958 17.6212 28.8326C17.6212 29.7877 18.29 30.41 19.229 30.41C19.7013 30.41 20.1339 30.297 20.5146 29.989L20.1804 29.505C19.9174 29.7063 19.5827 29.8192 19.268 29.8192C18.8285 29.8192 18.4283 29.6243 18.3299 29.0835H20.6587C20.6654 29.0023 20.6722 28.9203 20.6722 28.8324C20.6654 27.896 20.0608 27.2551 19.1829 27.2551L19.1833 27.2553ZM27.4168 28.8324C27.4168 28.3044 27.7779 27.8707 28.3682 27.8707C28.9323 27.8707 29.3129 28.2858 29.3129 28.8324C29.3129 29.3791 28.9323 29.7941 28.3682 29.7941C27.7779 29.7941 27.4166 29.3604 27.4166 28.8324H27.4168ZM29.9557 28.8324V27.331H29.2741V27.697C29.057 27.4266 28.7297 27.2569 28.2835 27.2569C27.4045 27.2569 26.7147 27.9172 26.7147 28.8343C26.7147 29.7513 27.4041 30.4116 28.2835 30.4116C28.7297 30.4116 29.057 30.2418 29.2741 29.9715V30.3362H29.9559V28.8335L29.9557 28.8324ZM23.5654 28.8324C23.5654 29.7436 24.2277 30.4098 25.2386 30.4098C25.7109 30.4098 26.0257 30.3091 26.366 30.0516L26.0385 29.5236C25.7824 29.6999 25.5136 29.7941 25.2168 29.7941C24.6724 29.7877 24.2721 29.4107 24.2721 28.8324C24.2721 28.2541 24.6724 27.8773 25.2168 27.8707C25.5128 27.8707 25.7816 27.965 26.0385 28.1412L26.366 27.6132C26.0251 27.3557 25.7104 27.2551 25.2386 27.2551C24.2277 27.2551 23.5654 27.921 23.5654 28.8324ZM32.3573 27.2551C31.9638 27.2551 31.7076 27.4313 31.5304 27.6952V27.331H30.8546V30.3346H31.5373V28.6509C31.5373 28.1538 31.7603 27.8777 32.2061 27.8777C32.3521 27.8757 32.497 27.9013 32.6326 27.9533L32.8428 27.3376C32.6918 27.2807 32.495 27.2556 32.3569 27.2556L32.3573 27.2551ZM14.0769 27.5699C13.7489 27.3627 13.2967 27.2556 12.798 27.2556C12.0035 27.2556 11.492 27.6204 11.492 28.2171C11.492 28.7069 11.8728 29.009 12.5741 29.1033L12.8962 29.1472C13.2702 29.1975 13.4467 29.2918 13.4467 29.4614C13.4467 29.6937 13.1983 29.8262 12.7319 29.8262C12.2595 29.8262 11.9186 29.6816 11.6888 29.5119L11.3683 30.0212C11.7423 30.2851 12.2146 30.4111 12.7262 30.4111C13.6319 30.4111 14.1568 30.0026 14.1568 29.4307C14.1568 28.9027 13.7437 28.6265 13.0611 28.5323L12.7397 28.4876C12.4445 28.451 12.2079 28.3941 12.2079 28.1928C12.2079 27.9732 12.4309 27.8411 12.8051 27.8411C13.2054 27.8411 13.5929 27.9856 13.7829 28.0986L14.0781 27.5706L14.0769 27.5699ZM22.8766 27.2562C22.4831 27.2562 22.2269 27.4324 22.0505 27.6963V27.331H21.3747V30.3346H22.0566V28.6509C22.0566 28.1538 22.2796 27.8777 22.7254 27.8777C22.8714 27.8757 23.0164 27.9013 23.1519 27.9533L23.3621 27.3376C23.2112 27.2807 23.0144 27.2556 22.8762 27.2556L22.8766 27.2562ZM17.0569 27.331H15.9417V26.4198H15.2523V27.331H14.6162V27.928H15.2523V29.2982C15.2523 29.9951 15.5347 30.4101 16.3415 30.4101C16.6375 30.4101 16.9784 30.3223 17.1947 30.1779L16.9977 29.6186C16.7942 29.7315 16.5712 29.7885 16.3938 29.7885C16.053 29.7885 15.9417 29.5871 15.9417 29.2857V27.9285H17.0569V27.331ZM6.86083 30.3353V28.4503C6.86083 27.7404 6.38847 27.2628 5.62699 27.2564C5.22667 27.25 4.81374 27.3693 4.52463 27.7907C4.30832 27.4577 3.96742 27.2564 3.48818 27.2564C3.15321 27.2564 2.82588 27.3506 2.56964 27.7023V27.331H1.88708V30.3346H2.57499V28.6692C2.57499 28.1478 2.8769 27.8707 3.34315 27.8707C3.79602 27.8707 4.02513 28.1535 4.02513 28.6626V30.3342H4.71456V28.6688C4.71456 28.1474 5.02928 27.8703 5.48196 27.8703C5.94763 27.8703 6.16986 28.1531 6.16986 28.6622V30.3338L6.86083 30.3353Z" fill="#231F20"/>
<path d="M23.9031 21.75H13.8387V3H23.9033L23.9031 21.75Z" fill="#FF5F00"/>
<path d="M14.8967 12.375C14.8967 8.58738 16.6967 5.21336 19.4998 3.03899C17.378 1.39067 14.7537 0.49608 12.0517 0.500013C5.39555 0.500013 0 5.81655 0 12.375C0 18.9335 5.39555 24.25 12.0517 24.25C14.7538 24.254 17.3782 23.3594 19.5 21.711C16.6971 19.537 14.8967 16.1628 14.8967 12.375Z" fill="#EB001B"/>
<path d="M38.371 12.375C38.371 18.9335 32.9757 24.25 26.3199 24.25C23.6176 24.2539 20.9931 23.3593 18.871 21.711C21.6747 19.5366 23.4747 16.1628 23.4747 12.375C23.4747 8.58719 21.6747 5.21336 18.871 3.03899C20.993 1.39072 23.6175 0.496148 26.3197 0.500012C32.9755 0.500012 38.3708 5.81655 38.3708 12.375" fill="#F79E1B"/>
</g>
<defs>
<clipPath id="clip0_282_22493">
<rect width="39" height="30" fill="white" transform="translate(0 0.5)"/>
</clipPath>
</defs>
</svg>
