<svg width="14" height="15" viewBox="0 0 14 15" fill="none" xmlns="http://www.w3.org/2000/svg">
<path d="M12.1036 7.50002L12.7476 6.38702C12.825 6.25311 12.846 6.09395 12.8061 5.94452C12.7662 5.7951 12.6685 5.66765 12.5347 5.59019L11.4205 4.94619V3.66286C11.4205 3.50815 11.359 3.35977 11.2496 3.25038C11.1402 3.14098 10.9919 3.07952 10.8372 3.07952H9.55441L8.911 1.96594C8.83329 1.83231 8.70608 1.73465 8.55691 1.69411C8.48293 1.67405 8.40569 1.66888 8.32969 1.67889C8.25369 1.6889 8.18043 1.7139 8.11416 1.75244L7 2.39644L5.88583 1.75186C5.75185 1.67451 5.59263 1.65354 5.4432 1.69358C5.29376 1.73362 5.16635 1.83138 5.089 1.96536L4.445 3.07952H3.16225C3.00754 3.07952 2.85916 3.14098 2.74977 3.25038C2.64037 3.35977 2.57891 3.50815 2.57891 3.66286V4.94561L1.46475 5.58961C1.39826 5.62785 1.33999 5.67885 1.29328 5.73968C1.24657 5.80051 1.21234 5.86996 1.19256 5.94406C1.17277 6.01816 1.16782 6.09544 1.17799 6.17146C1.18817 6.24748 1.21326 6.32073 1.25183 6.38702L1.89583 7.50002L1.25183 8.61302C1.17482 8.74706 1.15393 8.9061 1.19371 9.05548C1.23348 9.20486 1.3307 9.33245 1.46416 9.41044L2.57833 10.0544V11.3372C2.57833 11.4919 2.63979 11.6403 2.74918 11.7497C2.85858 11.8591 3.00695 11.9205 3.16166 11.9205H4.445L5.089 13.0347C5.14064 13.123 5.21438 13.1963 5.30295 13.2474C5.39152 13.2986 5.49189 13.3258 5.59416 13.3264C5.69566 13.3264 5.79658 13.2995 5.88641 13.2476L6.99941 12.6036L8.11358 13.2476C8.24752 13.3249 8.40664 13.3458 8.55602 13.3059C8.7054 13.266 8.83285 13.1684 8.91041 13.0347L9.55383 11.9205H10.8366C10.9913 11.9205 11.1397 11.8591 11.2491 11.7497C11.3585 11.6403 11.4199 11.4919 11.4199 11.3372V10.0544L12.5341 9.41044C12.6004 9.37209 12.6586 9.32103 12.7052 9.26019C12.7519 9.19935 12.786 9.12992 12.8058 9.05586C12.8256 8.9818 12.8306 8.90457 12.8205 8.82859C12.8104 8.7526 12.7854 8.67935 12.747 8.61302L12.1036 7.50002ZM5.54108 4.57752C5.77322 4.5776 5.99582 4.66989 6.15992 4.8341C6.32401 4.9983 6.41616 5.22097 6.41608 5.45311C6.416 5.68525 6.32371 5.90785 6.15951 6.07195C5.9953 6.23604 5.77264 6.32818 5.5405 6.32811C5.30835 6.32803 5.08575 6.23574 4.92166 6.07153C4.75756 5.90733 4.66542 5.68467 4.6655 5.45252C4.66557 5.22038 4.75787 4.99778 4.92207 4.83368C5.08627 4.66959 5.30894 4.57745 5.54108 4.57752V4.57752ZM5.71608 10.1775L4.78275 9.47811L8.28275 4.81144L9.21608 5.51086L5.71608 10.1775ZM8.45775 10.4109C8.3428 10.4108 8.22899 10.3881 8.12281 10.3441C8.01663 10.3001 7.92016 10.2356 7.83891 10.1543C7.75766 10.073 7.69321 9.97647 7.64926 9.87026C7.60531 9.76405 7.58271 9.65022 7.58275 9.53527C7.58278 9.42033 7.60546 9.30652 7.64949 9.20034C7.69351 9.09416 7.75801 8.99769 7.83932 8.91643C7.92063 8.83518 8.01714 8.77074 8.12335 8.72679C8.22956 8.68284 8.34338 8.66024 8.45833 8.66027C8.69047 8.66035 8.91307 8.75264 9.07717 8.91685C9.24126 9.08105 9.33341 9.30372 9.33333 9.53586C9.33325 9.768 9.24096 9.9906 9.07676 10.1547C8.91255 10.3188 8.68989 10.4109 8.45775 10.4109V10.4109Z" fill="#29D884"/>
</svg>
