<svg width="105" height="16" viewBox="0 0 105 16" fill="none" xmlns="http://www.w3.org/2000/svg">
<path d="M14.1083 5.48576L10.1636 4.91247L8.40027 1.33759C8.3521 1.23971 8.27287 1.16047 8.17499 1.11231C7.92952 0.991128 7.63122 1.09211 7.50849 1.33759L5.74513 4.91247L1.80048 5.48576C1.69173 5.50129 1.59229 5.55256 1.51617 5.63024C1.42413 5.72484 1.37342 5.8521 1.37517 5.98407C1.37691 6.11604 1.43098 6.24191 1.52549 6.33404L4.37949 9.11657L3.70522 13.0457C3.68941 13.1371 3.69952 13.2311 3.73442 13.317C3.76931 13.403 3.82759 13.4774 3.90264 13.5319C3.97769 13.5864 4.06651 13.6188 4.15903 13.6254C4.25155 13.632 4.34407 13.6126 4.4261 13.5693L7.95438 11.7142L11.4827 13.5693C11.579 13.6205 11.6908 13.6376 11.798 13.619C12.0684 13.5724 12.2501 13.316 12.2035 13.0457L11.5293 9.11657L14.3833 6.33404C14.4609 6.25791 14.5122 6.15848 14.5278 6.04972C14.5697 5.77784 14.3802 5.52615 14.1083 5.48576Z" fill="#FFC416"/>
<path d="M36.381 5.48576L32.4364 4.91247L30.673 1.33759C30.6249 1.23971 30.5456 1.16047 30.4478 1.11231C30.2023 0.991128 29.904 1.09211 29.7813 1.33759L28.0179 4.91247L24.0732 5.48576C23.9645 5.50129 23.8651 5.55256 23.7889 5.63024C23.6969 5.72484 23.6462 5.8521 23.6479 5.98407C23.6497 6.11604 23.7037 6.24191 23.7983 6.33404L26.6523 9.11657L25.978 13.0457C25.9622 13.1371 25.9723 13.2311 26.0072 13.317C26.0421 13.403 26.1004 13.4774 26.1754 13.5319C26.2505 13.5864 26.3393 13.6188 26.4318 13.6254C26.5243 13.632 26.6168 13.6126 26.6989 13.5693L30.2271 11.7142L33.7554 13.5693C33.8517 13.6205 33.9636 13.6376 34.0708 13.619C34.3411 13.5724 34.5229 13.316 34.4763 13.0457L33.802 9.11657L36.656 6.33404C36.7337 6.25791 36.785 6.15848 36.8005 6.04972C36.8425 5.77784 36.6529 5.52615 36.381 5.48576Z" fill="#FFC416"/>
<path d="M58.6538 5.48576L54.7092 4.91247L52.9458 1.33759C52.8976 1.23971 52.8184 1.16047 52.7205 1.11231C52.4751 0.991128 52.1768 1.09211 52.054 1.33759L50.2907 4.91247L46.346 5.48576C46.2373 5.50129 46.1378 5.55256 46.0617 5.63024C45.9697 5.72484 45.919 5.8521 45.9207 5.98407C45.9224 6.11604 45.9765 6.24191 46.071 6.33404L48.925 9.11657L48.2508 13.0457C48.2349 13.1371 48.2451 13.2311 48.2799 13.317C48.3148 13.403 48.3731 13.4774 48.4482 13.5319C48.5232 13.5864 48.612 13.6188 48.7046 13.6254C48.7971 13.632 48.8896 13.6126 48.9716 13.5693L52.4999 11.7142L56.0282 13.5693C56.1245 13.6205 56.2364 13.6376 56.3436 13.619C56.6139 13.5724 56.7957 13.316 56.7491 13.0457L56.0748 9.11657L58.9288 6.33404C59.0065 6.25791 59.0577 6.15848 59.0733 6.04972C59.1152 5.77784 58.9257 5.52615 58.6538 5.48576Z" fill="#FFC416"/>
<path d="M80.9265 5.48576L76.9819 4.91247L75.2185 1.33759C75.1703 1.23971 75.0911 1.16047 74.9932 1.11231C74.7478 0.991128 74.4495 1.09211 74.3267 1.33759L72.5634 4.91247L68.6187 5.48576C68.51 5.50129 68.4105 5.55256 68.3344 5.63024C68.2424 5.72484 68.1917 5.8521 68.1934 5.98407C68.1952 6.11604 68.2492 6.24191 68.3437 6.33404L71.1977 9.11657L70.5235 13.0457C70.5076 13.1371 70.5178 13.2311 70.5527 13.317C70.5875 13.403 70.6458 13.4774 70.7209 13.5319C70.7959 13.5864 70.8847 13.6188 70.9773 13.6254C71.0698 13.632 71.1623 13.6126 71.2443 13.5693L74.7726 11.7142L78.3009 13.5693C78.3972 13.6205 78.5091 13.6376 78.6163 13.619C78.8866 13.5724 79.0684 13.316 79.0218 13.0457L78.3475 9.11657L81.2015 6.33404C81.2792 6.25791 81.3305 6.15848 81.346 6.04972C81.3879 5.77784 81.1984 5.52615 80.9265 5.48576Z" fill="#FFC416"/>
<path d="M103.199 5.48576L99.2546 4.91247L97.4913 1.33759C97.4431 1.23971 97.3639 1.16047 97.266 1.11231C97.0205 0.991128 96.7222 1.09211 96.5995 1.33759L94.8361 4.91247L90.8915 5.48576C90.7827 5.50129 90.6833 5.55256 90.6072 5.63024C90.5151 5.72484 90.4644 5.8521 90.4662 5.98407C90.4679 6.11604 90.522 6.24191 90.6165 6.33404L93.4705 9.11657L92.7962 13.0457C92.7804 13.1371 92.7905 13.2311 92.8254 13.317C92.8603 13.403 92.9186 13.4774 92.9936 13.5319C93.0687 13.5864 93.1575 13.6188 93.25 13.6254C93.3426 13.632 93.4351 13.6126 93.5171 13.5693L97.0454 11.7142L100.574 13.5693C100.67 13.6205 100.782 13.6376 100.889 13.619C101.159 13.5724 101.341 13.316 101.295 13.0457L100.62 9.11657L103.474 6.33404C103.552 6.25791 103.603 6.15848 103.619 6.04972C103.661 5.77784 103.471 5.52615 103.199 5.48576Z" fill="#BABDCC"/>
</svg>
