<svg width="38" height="29" viewBox="0 0 38 29" fill="none" xmlns="http://www.w3.org/2000/svg">
<g clip-path="url(#clip0_282_22489)">
<path d="M18.5474 12.4807C18.5269 14.0408 19.9851 14.9115 21.0835 15.4291C22.2121 15.9602 22.5912 16.3008 22.5868 16.7757C22.5782 17.5027 21.6866 17.8234 20.852 17.8359C19.396 17.8578 18.5496 17.4558 17.8765 17.1517L17.352 19.5252C18.0273 19.8262 19.2775 20.0886 20.5741 20.1001C23.6174 20.1001 25.6086 18.6472 25.6194 16.3945C25.6312 13.5357 21.5304 13.3774 21.5584 12.0995C21.5681 11.7121 21.9504 11.2986 22.7882 11.1934C23.2028 11.1403 24.3476 11.0997 25.6452 11.6777L26.1546 9.38126C25.4568 9.13547 24.5597 8.9001 23.443 8.9001C20.5784 8.9001 18.5636 10.3727 18.5474 12.4807ZM31.0491 9.09798C30.4934 9.09798 30.025 9.41146 29.8161 9.89262L25.4686 19.9314H28.5098L29.115 18.314H32.8314L33.1824 19.9314H35.8628L33.5238 9.09798H31.0491ZM31.4745 12.0245L32.3521 16.0925H29.9485L31.4745 12.0245ZM14.8601 9.09798L12.4629 19.9314L15.3609 19.9314L17.757 9.09798H14.8601ZM10.573 9.09798L7.55659 16.4716L6.33646 10.2019C6.19324 9.50207 5.62786 9.09798 5.00003 9.09798H0.0689214L0 9.4125C1.01228 9.62496 2.16241 9.96761 2.85916 10.3342C3.28561 10.5581 3.4073 10.7539 3.5473 11.2861L5.85832 19.9314H8.92102L13.6163 9.09798H10.573Z" fill="#1B2073"/>
<path d="M0 0.5H36.9008V4.23333H0V0.5Z" fill="#1B2073"/>
<path d="M0 24.7666H36.9008V28.4999H0V24.7666Z" fill="#F7B802"/>
</g>
<defs>
<clipPath id="clip0_282_22489">
<rect width="38" height="28" fill="white" transform="translate(0 0.5)"/>
</clipPath>
</defs>
</svg>
